# Blender v2.79 (sub 0) OBJ File: ''
# www.blender.org
mtllib gate.mtl
o Cube
v 0.948398 8.787290 -7.520131
v 0.948398 8.787290 7.520132
v -0.948398 8.787290 7.520130
v -0.948397 8.787290 -7.520134
v 0.509918 11.833675 -4.043288
v 0.509917 11.833675 4.043293
v -0.509918 11.833675 4.043290
v -0.509918 11.833675 -4.043290
v 0.948398 8.787290 -6.376858
v 0.948398 8.787290 6.376858
v -0.948397 8.787290 -6.376861
v -0.948398 8.787290 6.376857
v 0.948398 0.156036 -7.520131
v -0.948397 0.156036 -7.520134
v 0.948398 0.156036 7.520132
v -0.948398 0.156036 7.520130
v 0.948398 0.156036 -6.376858
v -0.948397 0.156036 -6.376861
v 0.948398 0.156036 6.376858
v -0.948398 0.156036 6.376857
v 0.948398 8.787290 -5.915026
v -0.948397 8.787290 -5.915029
v 0.948398 8.787290 5.915026
v -0.948398 8.787290 5.915025
v 0.948398 5.903475 -5.915026
v -0.948397 5.903475 -5.915029
v 0.948398 5.903475 5.915026
v -0.948398 5.903475 5.915025
v 0.221039 11.833675 0.000002
v 0.000000 11.833675 -4.043289
v -0.000000 11.833675 4.043292
v -0.221039 11.833675 0.000001
v -0.000000 11.833675 0.000001
v 0.221039 11.833675 0.876345
v -0.254959 11.833675 -4.043289
v -0.254959 11.833675 4.043291
v -0.221039 11.833675 -0.876342
v 0.221039 11.833675 -0.876341
v 0.254959 11.833675 -4.043288
v 0.254958 11.833675 4.043293
v -0.221039 11.833675 0.876344
v -0.000000 11.833675 3.760067
v 0.000000 11.833675 -3.760064
v 0.474199 11.833675 0.000003
v -0.474199 11.833675 0.000000
v -0.474199 11.833675 -3.760065
v 0.474199 11.833675 -3.760063
v 0.474198 11.833675 3.760068
v -0.474199 11.833675 3.760065
v 0.948398 8.787290 6.948495
v 0.948398 8.787290 -6.948494
v 0.948398 0.156036 6.948495
v 0.948398 0.156036 -6.948494
v 0.948398 4.471663 -6.376858
v 0.948398 4.471663 -7.520131
v 0.948398 4.471663 7.520132
v 0.948398 4.471663 6.376858
v 0.948398 4.471663 6.948495
v 0.948398 4.471663 -6.948494
v 0.948398 8.787290 0.000000
v 0.948398 8.787290 0.000000
v 0.948398 8.787290 6.662676
v 0.948398 8.787290 -7.234313
v 0.948398 0.156036 6.662676
v 0.948398 0.156036 -7.234313
v 0.948398 2.313849 -6.376858
v 0.948398 6.629477 -7.520131
v 0.948398 2.313849 7.520132
v 0.948398 6.629477 6.376858
v 0.948398 8.787290 7.234313
v 0.948398 8.787290 -6.662676
v 0.948398 0.156036 7.234313
v 0.948398 0.156036 -6.662676
v 0.948398 6.629477 -6.376858
v 0.948398 2.313849 -7.520131
v 0.948398 6.629477 7.520132
v 0.948398 2.313849 6.376858
v 0.948398 2.313849 6.948495
v 0.948398 6.629477 6.948495
v 0.948398 4.471663 6.662676
v 0.948398 4.471663 7.234313
v 0.948398 2.313849 -6.948494
v 0.948398 6.629477 -6.948494
v 0.948398 4.471663 -7.234313
v 0.948398 4.471663 -6.662676
v 0.948398 8.787290 0.000000
v 0.948398 8.787290 0.000000
v 0.948398 6.629477 -6.662676
v 0.948398 6.629477 -7.234313
v 0.948398 2.313849 -7.234313
v 0.948398 6.629477 7.234313
v 0.948398 6.629477 6.662676
v 0.948398 2.313849 6.662676
v 0.948398 2.313849 7.234313
v 0.948398 2.313849 -6.662676
v 0.948398 8.787290 0.000000
v 1.238413 6.629477 6.948495
v 1.238413 4.471663 6.948495
v 1.238413 4.471663 7.234313
v 1.238413 6.629477 -6.948494
v 1.238413 4.471663 -6.948494
v 1.238413 4.471663 -6.662676
v 1.238413 4.471663 6.662676
v 1.238413 4.471663 -7.234313
v 1.238413 6.629477 -6.662676
v 1.238413 6.629477 -7.234313
v 1.238413 6.629477 7.234313
v 1.238413 6.629477 6.662676
v 6.731976 6.629477 8.201243
v 6.731976 4.471663 8.201243
v 6.731976 4.471663 8.538591
v 6.731976 6.629477 -8.201247
v 6.731976 4.471663 -8.201247
v 6.731976 4.471663 -7.863893
v 6.731976 4.471663 7.863897
v 6.731976 4.471663 -8.538595
v 6.731976 6.629477 -7.863893
v 6.731976 6.629477 -8.538595
v 6.731976 6.629477 8.538591
v 6.731976 6.629477 7.863897
v 6.263485 6.629477 -7.863893
v 0.769922 6.629477 -6.662676
v 0.769922 4.471663 -6.662676
v 6.263485 4.471663 -7.863893
v 0.769922 6.629477 6.662676
v 0.769922 4.471663 6.662676
v 6.263485 6.629477 7.863897
v 6.263485 4.471663 7.863897
v 6.731976 8.680407 -7.863893
v 1.238413 8.680407 -6.662676
v 6.731976 8.680407 7.863897
v 1.238413 8.680407 6.662676
v 6.263485 8.680407 -7.863893
v 0.769922 8.680407 -6.662676
v 6.263485 8.680407 7.863897
v 0.769922 8.680407 6.662676
v 1.238413 0.274342 -6.662676
v 6.731976 0.274342 -7.863893
v 1.238413 0.274342 6.662676
v 6.731976 0.274342 7.863897
v 0.769922 0.274342 -6.662676
v 6.263485 0.274342 -7.863893
v 0.769922 0.274342 6.662676
v 6.263485 0.274342 7.863897
v 6.731976 6.629477 -7.559347
v 1.238413 6.629477 -6.404650
v 1.238413 4.471663 -6.404650
v 6.731976 4.471663 -7.559347
v 6.731976 6.629477 7.559350
v 1.238413 6.629477 6.404651
v 1.238413 4.471663 6.404651
v 6.731976 4.471663 7.559350
v 6.263485 6.629477 -7.559347
v 0.769922 6.629477 -6.404650
v 0.769922 4.471663 -6.404650
v 6.263485 4.471663 -7.559347
v 0.769922 6.629477 6.404651
v 0.769922 4.471663 6.404651
v 6.263485 6.629477 7.559350
v 6.263485 4.471663 7.559350
v 6.731976 8.680407 -7.559347
v 1.238413 8.680407 -6.404650
v 6.731976 8.680407 7.559350
v 1.238413 8.680407 6.404651
v 1.238413 0.274342 -6.404650
v 6.731976 0.274342 -7.559347
v 1.238413 0.274342 6.404651
v 6.731976 0.274342 7.559350
vn 0.0000 -1.0000 0.0000
vn 0.0000 1.0000 0.0000
vn 0.9834 0.1812 0.0000
vn -0.0000 0.7521 0.6590
vn -0.9834 0.1812 -0.0000
vn 0.0000 0.7521 -0.6590
vn -1.0000 0.0000 0.0000
vn 1.0000 0.0000 0.0000
vn -0.0000 0.0000 1.0000
vn 0.0000 0.0000 -1.0000
vn -0.0000 -0.0801 0.9968
vn 0.0000 -0.0801 -0.9968
vn -0.2310 0.0000 0.9730
vn -0.2310 0.0000 -0.9730
vn 0.2136 0.0000 -0.9769
vn 0.2136 0.0000 0.9769
vn -0.2057 0.0000 -0.9786
vn 0.2057 0.0000 0.9786
vn 0.2057 0.0000 -0.9786
vn -0.2057 0.0000 0.9786
usemtl Material
s off
f 96//1 62//1 10//1 61//1
f 49//2 41//2 7//2 36//2
f 1//3 5//3 38//3 29//3 34//3 6//3 2//3 60//3
f 2//4 6//4 40//4 31//4 36//4 7//4 3//4
f 3//5 7//5 41//5 32//5 37//5 8//5 4//5
f 5//6 1//6 4//6 8//6 35//6 30//6 39//6
f 9//1 61//1 10//1 12//1 11//1
f 3//2 4//2 11//2 12//2
f 20//7 12//7 24//7 28//7
f 95//8 66//8 17//8 73//8
f 15//1 16//1 20//1 19//1 64//1 52//1 72//1
f 14//1 13//1 65//1 53//1 73//1 17//1 18//1
f 11//7 4//7 14//7 18//7
f 94//8 68//8 15//8 72//8
f 2//9 3//9 16//9 15//9 68//9 56//9 76//9
f 17//8 66//8 54//8 74//8 9//8 21//8 25//8
f 4//10 1//10 67//10 55//10 75//10 13//10 14//10
f 3//7 12//7 20//7 16//7
f 21//9 22//9 26//9 25//9
f 24//10 23//10 27//10 28//10
f 9//2 11//2 22//2 21//2
f 10//8 69//8 57//8 77//8 19//8 27//8 23//8
f 18//11 17//11 25//11 26//11
f 12//2 10//2 23//2 24//2
f 19//12 20//12 28//12 27//12
f 11//7 18//7 26//7 22//7
f 48//2 42//2 31//2 40//2
f 47//2 43//2 33//2 44//2
f 46//1 37//1 32//1 45//1
f 43//2 46//2 45//2 33//2
f 30//2 35//2 46//2 43//2
f 35//2 8//2 37//2 46//2
f 38//1 47//1 44//1 29//1
f 5//2 39//2 47//2 38//2
f 39//2 30//2 43//2 47//2
f 34//2 48//2 40//2 6//2
f 29//1 44//1 48//1 34//1
f 44//2 33//2 42//2 48//2
f 42//2 49//2 36//2 31//2
f 33//2 45//2 49//2 42//2
f 45//1 32//1 41//1 49//1
f 93//8 78//8 52//8 64//8
f 80//10 92//10 108//10 103//10
f 91//8 76//8 56//8 81//8
f 90//8 82//8 53//8 65//8
f 83//2 88//2 105//2 100//2
f 88//8 74//8 54//8 85//8
f 87//9 70//9 50//9 86//9
f 63//9 87//9 86//9 51//9
f 1//9 60//9 87//9 63//9
f 60//1 2//1 70//1 87//1
f 92//2 79//2 97//2 108//2
f 51//8 71//8 88//8 83//8
f 71//8 9//8 74//8 88//8
f 67//8 89//8 84//8 55//8
f 1//8 63//8 89//8 67//8
f 63//8 51//8 83//8 89//8
f 75//8 90//8 65//8 13//8
f 55//8 84//8 90//8 75//8
f 84//8 59//8 82//8 90//8
f 91//9 81//9 99//9 107//9
f 50//8 70//8 91//8 79//8
f 70//8 2//8 76//8 91//8
f 69//8 92//8 80//8 57//8
f 10//8 62//8 92//8 69//8
f 62//8 50//8 79//8 92//8
f 77//8 93//8 64//8 19//8
f 57//8 80//8 93//8 77//8
f 80//8 58//8 78//8 93//8
f 78//8 94//8 72//8 52//8
f 58//8 81//8 94//8 78//8
f 81//8 56//8 68//8 94//8
f 82//8 95//8 73//8 53//8
f 59//8 85//8 95//8 82//8
f 85//8 54//8 66//8 95//8
f 71//1 96//1 61//1 9//1
f 51//1 86//1 96//1 71//1
f 86//2 50//2 62//2 96//2
f 107//13 99//13 111//13 119//13
f 102//1 101//1 113//1 114//1
f 108//2 97//2 109//2 120//2
f 129//7 117//7 145//7 161//7
f 58//1 80//1 103//1 98//1
f 59//1 84//1 104//1 101//1
f 88//9 85//9 102//9 105//9
f 89//2 83//2 100//2 106//2
f 79//2 91//2 107//2 97//2
f 81//1 58//1 98//1 99//1
f 84//10 89//10 106//10 104//10
f 85//1 59//1 101//1 102//1
f 120//8 109//8 110//8 115//8
f 118//8 112//8 113//8 116//8
f 112//8 117//8 114//8 113//8
f 109//8 119//8 111//8 110//8
f 100//2 105//2 117//2 112//2
f 98//1 103//1 115//1 110//1
f 97//2 107//2 119//2 109//2
f 99//1 98//1 110//1 111//1
f 104//14 106//14 118//14 116//14
f 101//1 104//1 116//1 113//1
f 123//10 102//10 137//10 141//10
f 106//2 100//2 112//2 118//2
f 138//2 137//2 165//2 166//2
f 131//1 132//1 164//1 163//1
f 120//10 127//10 135//10 131//10
f 120//10 115//10 128//10 127//10
f 103//9 108//9 125//9 126//9
f 114//9 117//9 121//9 124//9
f 122//7 123//7 155//7 154//7
f 105//10 102//10 123//10 122//10
f 129//1 130//1 134//1 133//1
f 132//1 131//1 135//1 136//1
f 105//10 122//10 134//10 130//10
f 127//15 125//15 136//15 135//15
f 125//9 108//9 132//9 136//9
f 121//9 117//9 129//9 133//9
f 105//8 130//8 162//8 146//8
f 122//16 121//16 133//16 134//16
f 140//2 139//2 143//2 144//2
f 137//2 138//2 142//2 141//2
f 130//1 129//1 161//1 162//1
f 126//15 128//15 144//15 143//15
f 124//16 123//16 141//16 142//16
f 103//9 126//9 143//9 139//9
f 114//9 124//9 142//9 138//9
f 128//10 115//10 140//10 144//10
f 147//17 148//17 166//17 165//17
f 154//18 155//18 156//18 153//18
f 158//19 157//19 159//19 160//19
f 145//17 146//17 162//17 161//17
f 150//20 149//20 163//20 164//20
f 152//20 151//20 167//20 168//20
f 137//8 102//8 147//8 165//8
f 126//7 125//7 157//7 158//7
f 139//2 140//2 168//2 167//2
f 115//1 103//1 151//1 152//1
f 117//2 105//2 146//2 145//2
f 124//8 121//8 153//8 156//8
f 120//7 131//7 163//7 149//7
f 114//7 138//7 166//7 148//7
f 127//8 128//8 160//8 159//8
f 102//1 114//1 148//1 147//1
f 108//2 120//2 149//2 150//2
f 103//8 139//8 167//8 151//8
f 125//2 127//2 159//2 157//2
f 140//7 115//7 152//7 168//7
f 128//1 126//1 158//1 160//1
f 121//2 122//2 154//2 153//2
f 132//8 108//8 150//8 164//8
f 123//1 124//1 156//1 155//1
