# Blender v2.79 (sub 0) OBJ File: ''
# www.blender.org
mtllib hq.mtl
o Cube
v 21.327286 1.611272 -15.370381
v 21.327286 1.611272 13.277420
v -13.259231 1.611272 13.277417
v -13.259222 1.611272 -15.370389
v 21.327293 16.894594 -15.370376
v 21.327276 16.894594 13.277428
v -13.259235 16.894594 13.277414
v -17.690075 16.894594 -15.370382
v 26.152117 1.541999 -1.046481
v 4.034035 1.541999 -16.502329
v 21.327291 10.158047 -15.370378
v 4.034031 1.541999 17.273794
v 21.327280 10.158047 13.277423
v -18.084051 1.541999 -1.046488
v -13.259233 10.158047 13.277417
v -17.690075 10.158047 -15.370386
v 26.152111 18.774096 -1.046473
v 4.034036 18.774096 -16.502323
v 4.034019 18.774096 17.273798
v -18.084057 18.774096 -1.046486
v 4.034036 10.158047 -16.502325
v -18.084055 10.158047 -1.046487
v 4.034024 10.158047 17.273796
v 26.152113 10.158047 -1.046477
v 4.034027 18.774096 -1.046479
v 4.034032 1.541999 -1.046485
v -30.440443 10.158047 -15.642268
v -30.440443 16.894594 -15.642265
v -32.532623 18.774096 -1.318368
v -32.532619 10.158047 -1.318369
v -4.612608 17.834347 15.275606
v -15.671645 17.834347 6.115464
v 4.034023 18.774096 8.113659
v -7.025015 18.774096 -1.046482
v -4.612608 17.834347 15.275606
v -13.259235 16.894594 13.277414
v -15.671645 17.834347 6.115464
v -18.084057 18.774096 -1.046486
v 4.034023 18.774096 8.113659
v 4.034019 18.774096 17.273798
v -7.025015 18.774096 -1.046482
v 4.034027 18.774096 -1.046479
v -5.818812 18.304220 7.114562
v -8.963956 17.736574 11.255625
v -10.413813 17.578997 10.920570
v -10.818323 17.736574 9.719663
v -9.166211 17.815361 9.887190
v -9.523578 23.644247 11.931252
v -10.973434 23.486671 11.596198
v -11.075746 24.957506 10.395290
v -9.725833 25.036293 10.562818
v -8.027797 24.234001 8.909647
v -11.847144 24.039843 8.204041
v -12.537872 27.390348 8.250629
v -8.859037 27.722948 8.603433
v -10.939805 28.141226 8.243905
v -8.121951 26.145630 8.971736
v -12.835632 25.786459 8.208024
v -10.017778 23.790863 8.739970
v -6.582902 23.157253 7.292814
v -12.908840 22.570667 6.020791
v -14.154042 28.610750 6.104778
v -7.668890 29.404348 6.697474
v -11.273145 29.964384 6.092655
v -6.193295 26.366848 7.404743
v -14.690825 25.719357 6.027971
v -9.610973 22.121820 6.986931
v -10.818323 17.736574 9.719663
v -9.166211 17.815361 9.887190
v -10.509649 24.878555 8.712062
v -9.865240 24.916166 8.792035
v -9.645766 24.003172 10.466153
v -9.443511 22.799019 11.834589
v -10.893368 22.641441 11.499534
v -11.038916 23.924383 10.298626
v -9.827019 24.422983 8.745890
v -10.492068 24.385372 8.665917
v -10.147812 26.941940 3.668599
v -9.503403 26.979553 3.748571
v -9.465181 26.486370 3.702426
v -10.130231 26.448761 3.622454
v -4.612594 1.576636 -15.936357
v -13.259222 5.884660 -15.370387
v -4.612594 10.158047 -15.936355
v 4.034035 5.850023 -16.502327
v -4.612594 5.867342 -15.936357
v -8.935907 1.593954 -15.653373
v -13.259222 8.021354 -15.370386
v -8.935909 10.158047 -15.653370
v 4.034036 8.004035 -16.502327
v -0.289280 1.559317 -16.219343
v -13.259222 3.747966 -15.370389
v -0.289279 10.158047 -16.219341
v 4.034035 3.696011 -16.502327
v -8.935907 5.876000 -15.653372
v -4.612594 8.012694 -15.936357
v -4.612594 3.721989 -15.936357
v -0.289280 3.709000 -16.219343
v -0.289279 8.008365 -16.219341
v -8.935907 8.017024 -15.653372
v -8.935907 3.734977 -15.653373
v -11.097565 1.602613 -15.511882
v -13.259222 9.089701 -15.370386
v -11.097567 10.158047 -15.511879
v 4.034036 9.081041 -16.502327
v -2.450937 1.567976 -16.077850
v -13.259222 4.816313 -15.370389
v -2.450936 10.158047 -16.077848
v 4.034035 4.773017 -16.502327
v -11.097565 5.880330 -15.511879
v -2.450937 5.863012 -16.077850
v -4.612594 9.085371 -15.936355
v -4.612594 4.794665 -15.936357
v -6.774251 1.585295 -15.794865
v -13.259222 6.953007 -15.370386
v -6.774251 10.158047 -15.794862
v 4.034035 6.927029 -16.502327
v 1.872377 1.550658 -16.360838
v -13.259222 2.679619 -15.370389
v 1.872379 10.158047 -16.360834
v 4.034035 2.619005 -16.502327
v -6.774251 5.871671 -15.794865
v -4.612594 6.940018 -15.936357
v -4.612594 2.649312 -15.936357
v -2.450937 3.715494 -16.077850
v 1.872378 3.702506 -16.360834
v -0.289279 4.783841 -16.219343
v -0.289280 2.634159 -16.219343
v -2.450936 8.010530 -16.077848
v 1.872378 8.006200 -16.360834
v -0.289279 9.083206 -16.219341
v -11.097565 8.019189 -15.511879
v -6.774251 8.014859 -15.794865
v -8.935908 9.087536 -15.653372
v -8.935907 6.946512 -15.653372
v -11.097565 3.741472 -15.511882
v -6.774251 3.728483 -15.794865
v -8.935907 4.805489 -15.653372
v -8.935907 2.664466 -15.653373
v -6.774251 2.656889 -15.794865
v -6.774251 4.800077 -15.794865
v -11.097565 4.810901 -15.511880
v -6.774251 6.943265 -15.794865
v -6.774251 9.086452 -15.794864
v -11.097566 9.088618 -15.511879
v 1.872379 9.082124 -16.360834
v -2.450936 9.084289 -16.077848
v 1.872377 2.626582 -16.360836
v 1.872378 4.778429 -16.360834
v -2.450937 4.789253 -16.077850
v -2.450937 2.641736 -16.077850
v -2.450936 6.936771 -16.077850
v -11.097565 6.949759 -15.511879
v -11.097565 2.672042 -15.511882
v -4.497761 2.649312 -14.182011
v -4.497761 3.721989 -14.182011
v -4.497761 4.794665 -14.182011
v -4.497761 1.576636 -14.182011
v -6.659419 1.585295 -14.040517
v -6.659419 3.728483 -14.040517
v -6.659419 2.656889 -14.040517
v -6.659419 4.800077 -14.040517
v 4.102740 4.773017 -15.452684
v 4.102740 5.850023 -15.452684
v 4.102740 6.927029 -15.452684
v 4.102741 8.004035 -15.452684
v 1.941083 5.854352 -15.311192
v -0.220574 5.858682 -15.169701
v -0.220574 4.783840 -15.169701
v 1.941083 8.006200 -15.311192
v -0.220574 8.008365 -15.169699
v -0.220574 6.933523 -15.169699
v -2.382231 5.863011 -15.028209
v -2.382231 8.010530 -15.028206
v 1.941083 6.930276 -15.311192
v 1.941083 4.778429 -15.311192
v -2.382232 4.789252 -15.028209
v -2.382231 6.936770 -15.028207
vn -0.0020 -1.0000 0.0024
vn 0.0000 0.0000 1.0000
vn 0.9477 0.0000 0.3192
vn -0.2252 -0.0000 0.9743
vn 0.0026 0.9915 -0.1299
vn -0.0653 0.0000 -0.9979
vn -0.0520 -0.0131 -0.9986
vn 0.0653 0.0000 -0.9979
vn -0.9255 -0.2389 -0.2939
vn -0.9477 -0.0000 0.3192
vn 0.2252 -0.0000 0.9743
vn 0.9477 0.0000 -0.3192
vn 0.0541 0.9964 0.0654
vn 0.0495 0.9963 -0.0709
vn -0.0444 0.9970 -0.0635
vn -0.0018 -1.0000 -0.0026
vn 0.0018 -1.0000 -0.0026
vn 0.0020 -1.0000 0.0024
vn -0.9895 -0.0000 -0.1445
vn -0.0188 -0.0000 0.9998
vn 0.0213 0.0000 -0.9998
vn 0.0000 -1.0000 0.0000
vn -0.1351 0.9832 0.1224
vn -0.0812 0.9962 0.0327
vn -0.0238 0.9993 0.0288
vn -0.0270 0.9948 0.0979
vn 0.9940 0.0910 -0.0606
vn -0.0580 0.9928 0.1050
vn -0.1012 0.9814 0.1629
vn -0.0871 0.9937 0.0701
vn 0.1300 -0.5720 -0.8099
vn -0.2097 -0.1307 0.9690
vn -0.9479 -0.0040 -0.3186
vn -0.9975 -0.0650 0.0284
vn 0.2824 0.7266 -0.6263
vn -0.0869 0.9916 0.0961
vn 0.8704 0.0663 -0.4878
vn -0.6601 -0.3428 -0.6684
vn -0.5428 -0.4286 -0.7223
vn -0.0186 -0.7547 -0.6558
vn 0.7576 -0.1236 -0.6409
vn 0.6939 0.3941 -0.6026
vn -0.1498 0.7246 -0.6727
vn 0.3244 -0.6962 -0.6403
vn -0.6763 0.0640 -0.7338
vn 0.1874 -0.6450 -0.7409
vn 0.0968 -0.9236 -0.3709
vn -0.0503 0.9967 -0.0637
vn 0.9929 0.0848 -0.0839
vn 0.1128 -0.1595 -0.9807
vn -0.9810 -0.0793 0.1771
vn 0.9903 0.0949 -0.1019
vn 0.1150 0.0990 -0.9884
vn 0.9928 0.0677 0.0989
vn -0.9962 -0.0278 -0.0828
vn -0.0999 0.9234 0.3706
vn -0.0010 -1.0000 0.0001
vn -0.9979 0.0000 0.0653
vn 0.9979 0.0000 -0.0653
vn -0.0322 -0.0668 -0.9972
vn 0.0025 1.0000 -0.0002
vn -0.0025 -1.0000 0.0002
vn 0.0040 1.0000 -0.0003
usemtl Material
s off
f 26//1 12//1 3//1 14//1
f 20//2 32//2 37//2 38//2
f 24//3 17//3 6//3 13//3
f 23//4 19//4 31//4 7//4 15//4
f 20//5 8//5 28//5 29//5
f 154//6 102//6 4//6 119//6
f 18//7 21//7 120//7 93//7 108//7 84//7 116//7 89//7 104//7 16//7 8//7
f 5//8 11//8 21//8 18//8
f 11//8 1//8 10//8 121//8 94//8 109//8 85//8 117//8 90//8 105//8 21//8
f 14//9 22//9 16//9 103//9 88//9 115//9 83//9 107//9 92//9 119//9 4//9
f 3//10 15//10 22//10 14//10
f 15//10 7//10 32//10 20//10 22//10
f 12//4 23//4 15//4 3//4
f 2//11 13//11 23//11 12//11
f 13//11 6//11 19//11 23//11
f 9//3 24//3 13//3 2//3
f 1//12 11//12 24//12 9//12
f 11//12 5//12 17//12 24//12
f 17//13 25//13 33//13 19//13 6//13
f 5//14 18//14 25//14 17//14
f 18//15 8//15 20//15 34//15 25//15
f 10//16 26//16 14//16 4//16 102//16 87//16 114//16 82//16 106//16 91//16 118//16
f 1//17 9//17 26//17 10//17
f 9//18 2//18 12//18 26//18
f 30//19 29//19 28//19 27//19
f 22//20 20//20 29//20 30//20
f 8//21 16//21 27//21 28//21
f 16//22 22//22 30//22 27//22
f 31//2 19//2 40//2 35//2
f 33//2 25//2 42//2 39//2
f 19//2 33//2 39//2 40//2
f 36//23 35//23 44//23 45//23
f 39//24 43//24 35//24 40//24
f 42//25 41//25 43//25 39//25
f 41//26 38//26 37//26 43//26
f 7//2 31//2 35//2 36//2
f 25//2 34//2 41//2 42//2
f 34//2 20//2 38//2 41//2
f 32//2 7//2 36//2 37//2
f 73//27 72//27 51//27 48//27
f 43//28 37//28 46//28 47//28
f 37//29 36//29 45//29 46//29
f 35//30 43//30 47//30 44//30
f 51//31 50//31 54//31 56//31 55//31
f 74//32 73//32 48//32 49//32
f 75//33 50//33 70//33 77//33
f 75//34 74//34 49//34 50//34
f 53//35 59//35 67//35 61//35
f 49//36 48//36 52//36 59//36 53//36
f 50//37 49//37 53//37 58//37 54//37
f 48//38 51//38 55//38 57//38 52//38
f 57//39 55//39 63//39 65//39
f 55//40 56//40 64//40 63//40
f 54//41 58//41 66//41 62//41
f 58//42 53//42 61//42 66//42
f 59//43 52//43 60//43 67//43
f 56//44 54//44 62//44 64//44
f 52//45 57//45 65//45 60//45
f 51//46 48//46 49//46 50//46
f 76//47 77//47 81//47 80//47
f 50//48 51//48 71//48 70//48
f 47//2 46//2 68//2 69//2
f 72//49 47//49 69//49 76//49
f 51//49 72//49 76//49 71//49
f 69//50 68//50 77//50 76//50
f 46//51 45//51 74//51 75//51
f 46//33 75//33 77//33 68//33
f 45//32 44//32 73//32 74//32
f 44//52 47//52 72//52 73//52
f 80//53 81//53 78//53 79//53
f 71//54 76//54 80//54 79//54
f 77//55 70//55 78//55 81//55
f 70//56 71//56 79//56 78//56
f 153//6 110//6 83//6 115//6
f 152//6 111//6 86//6 123//6
f 151//6 106//6 82//6 124//6
f 150//6 125//6 97//6 113//6
f 149//6 126//6 98//6 127//6
f 148//6 118//6 91//6 128//6
f 147//6 129//6 96//6 112//6
f 146//6 130//6 99//6 131//6
f 129//57 99//57 171//57 174//57
f 145//6 132//6 88//6 103//6
f 144//6 133//6 100//6 134//6
f 143//6 122//6 95//6 135//6
f 142//6 136//6 92//6 107//6
f 141//6 137//6 101//6 138//6
f 140//6 114//6 87//6 139//6
f 137//6 140//6 139//6 101//6
f 97//58 124//58 155//58 156//58
f 140//59 137//59 160//59 161//59
f 122//6 141//6 138//6 95//6
f 86//6 113//6 141//6 122//6
f 113//58 97//58 156//58 157//58
f 110//6 142//6 107//6 83//6
f 95//6 138//6 142//6 110//6
f 138//6 101//6 136//6 142//6
f 133//6 143//6 135//6 100//6
f 96//6 123//6 143//6 133//6
f 123//6 86//6 122//6 143//6
f 116//6 144//6 134//6 89//6
f 84//6 112//6 144//6 116//6
f 112//6 96//6 133//6 144//6
f 104//60 145//60 103//60 16//60
f 89//6 134//6 145//6 104//6
f 134//6 100//6 132//6 145//6
f 127//61 150//61 177//61 169//61
f 111//59 152//59 178//59 173//59
f 109//61 149//61 176//61 163//61
f 120//6 146//6 131//6 93//6
f 21//6 105//6 146//6 120//6
f 105//6 90//6 130//6 146//6
f 108//6 147//6 112//6 84//6
f 93//6 131//6 147//6 108//6
f 131//6 99//6 129//6 147//6
f 126//6 148//6 128//6 98//6
f 94//6 121//6 148//6 126//6
f 121//6 10//6 118//6 148//6
f 99//57 130//57 170//57 171//57
f 90//58 117//58 165//58 166//58
f 109//6 94//6 126//6 149//6
f 111//6 150//6 113//6 86//6
f 152//59 129//59 174//59 178//59
f 127//6 98//6 125//6 150//6
f 125//6 151//6 124//6 97//6
f 98//6 128//6 151//6 125//6
f 128//6 91//6 106//6 151//6
f 129//6 152//6 123//6 96//6
f 130//57 90//57 166//57 170//57
f 149//61 127//61 169//61 176//61
f 132//6 153//6 115//6 88//6
f 100//6 135//6 153//6 132//6
f 135//6 95//6 110//6 153//6
f 136//6 154//6 119//6 92//6
f 101//6 139//6 154//6 136//6
f 139//6 87//6 102//6 154//6
f 156//6 155//6 161//6 160//6
f 155//6 158//6 159//6 161//6
f 157//6 156//6 160//6 162//6
f 137//59 141//59 162//59 160//59
f 141//62 113//62 157//62 162//62
f 82//63 114//63 159//63 158//63
f 124//58 82//58 158//58 155//58
f 114//59 140//59 161//59 159//59
f 175//6 167//6 168//6 172//6
f 170//6 175//6 172//6 171//6
f 166//6 165//6 175//6 170//6
f 165//6 164//6 167//6 175//6
f 167//6 176//6 169//6 168//6
f 164//6 163//6 176//6 167//6
f 168//6 169//6 177//6 173//6
f 171//6 172//6 178//6 174//6
f 172//6 168//6 173//6 178//6
f 150//59 111//59 173//59 177//59
f 85//58 109//58 163//58 164//58
f 117//58 85//58 164//58 165//58
